<svg xmlns="http://www.w3.org/2000/svg" xmlns:xlink="http://www.w3.org/1999/xlink" width="230" zoomAndPan="magnify" viewBox="0 0 172.5 44.999999" height="60" preserveAspectRatio="xMidYMid meet" version="1.0"><defs><g/><clipPath id="40a7b19069"><path d="M 4.488281 0.0664062 L 43.375 0.0664062 L 43.375 44.933594 L 4.488281 44.933594 Z M 4.488281 0.0664062 " clip-rule="nonzero"/></clipPath><clipPath id="c3bbb03fee"><path d="M 24 27.417969 L 152.519531 27.417969 L 152.519531 40 L 24 40 Z M 24 27.417969 " clip-rule="nonzero"/></clipPath><clipPath id="b89f1c177e"><path d="M 10.394531 10.699219 L 59 10.699219 L 59 34.628906 L 10.394531 34.628906 Z M 10.394531 10.699219 " clip-rule="nonzero"/></clipPath></defs><g clip-path="url(#40a7b19069)"><path fill="#ffffff" d="M 43.292969 15.929688 L 42.417969 15.929688 L 42.417969 11.804688 L 23.890625 1.101562 L 5.363281 11.804688 L 5.363281 15.929688 L 4.488281 15.929688 L 4.488281 11.296875 L 23.890625 0.09375 L 43.292969 11.296875 Z M 43.292969 33.703125 L 43.292969 29.070312 L 42.417969 29.070312 L 42.417969 33.195312 L 23.890625 43.890625 L 5.363281 33.195312 L 5.363281 29.070312 L 4.488281 29.070312 L 4.488281 33.703125 L 23.890625 44.90625 Z M 43.292969 33.703125 " fill-opacity="1" fill-rule="nonzero"/></g><g clip-path="url(#c3bbb03fee)"><path fill="#ffffff" d="M 25.039062 34.679688 C 31.570312 29.410156 39.933594 28.535156 48.035156 28.847656 C 57.097656 29.195312 66.09375 30.9375 74.949219 32.761719 C 92.011719 36.269531 109.234375 40.425781 126.792969 38.855469 C 131.226562 38.503906 135.582031 37.726562 139.855469 36.515625 C 143.984375 35.300781 148.699219 33.777344 151.902344 30.828125 C 152.015625 30.710938 152.078125 30.574219 152.097656 30.414062 C 152.117188 30.253906 152.085938 30.105469 152.003906 29.96875 C 151.925781 29.828125 151.8125 29.730469 151.664062 29.667969 C 151.515625 29.605469 151.363281 29.59375 151.210938 29.628906 C 147.210938 30.746094 143.488281 32.757812 139.46875 33.898438 C 135.316406 35.082031 131.089844 35.882812 126.792969 36.304688 C 118.414062 37.125 109.902344 36.65625 101.558594 35.515625 C 83.65625 33.066406 65.90625 27.71875 47.734375 27.496094 C 39.621094 27.398438 30.972656 28.90625 24.609375 34.25 C 24.308594 34.503906 24.742188 34.921875 25.039062 34.679688 Z M 25.039062 34.679688 " fill-opacity="1" fill-rule="nonzero"/></g><g clip-path="url(#b89f1c177e)"><path fill="#ffffff" d="M 58.886719 34.617188 L 58.886719 34.703125 L 13.863281 34.867188 L 13.660156 34.867188 L 13.660156 34.660156 L 13.597656 20.964844 L 11.21875 20.976562 L 10.394531 20.980469 L 11.050781 20.472656 L 23.492188 10.867188 L 23.703125 10.707031 L 23.917969 10.867188 L 36.445312 20.355469 L 37.4375 21.109375 C 36.773438 21.113281 34.988281 21.121094 33.980469 21.125 L 33.984375 24.214844 L 33.105469 24.214844 L 33.109375 20.691406 L 33.109375 20.253906 L 33.546875 20.253906 L 34.945312 20.261719 L 23.703125 11.589844 L 12.050781 20.417969 L 13.863281 20.429688 L 14.132812 20.429688 L 14.132812 20.695312 L 14.070312 34.457031 Z M 58.886719 34.617188 " fill-opacity="1" fill-rule="nonzero"/></g><g fill="#ffffff" fill-opacity="1"><g transform="translate(44.556394, 25.659378)"><g><path d="M 8.1875 -9.375 C 8.03125 -9.5625 7.84375 -9.726562 7.625 -9.875 C 7.40625 -10.019531 7.160156 -10.144531 6.890625 -10.25 C 6.617188 -10.363281 6.328125 -10.453125 6.015625 -10.515625 C 5.710938 -10.578125 5.382812 -10.609375 5.03125 -10.609375 C 4.03125 -10.609375 3.289062 -10.414062 2.8125 -10.03125 C 2.34375 -9.644531 2.109375 -9.125 2.109375 -8.46875 C 2.109375 -8.007812 2.21875 -7.648438 2.4375 -7.390625 C 2.664062 -7.128906 3.015625 -6.914062 3.484375 -6.75 C 3.960938 -6.59375 4.570312 -6.425781 5.3125 -6.25 C 6.132812 -6.082031 6.84375 -5.878906 7.4375 -5.640625 C 8.039062 -5.398438 8.503906 -5.078125 8.828125 -4.671875 C 9.148438 -4.265625 9.3125 -3.710938 9.3125 -3.015625 C 9.3125 -2.484375 9.207031 -2.023438 9 -1.640625 C 8.789062 -1.253906 8.503906 -0.929688 8.140625 -0.671875 C 7.773438 -0.410156 7.335938 -0.21875 6.828125 -0.09375 C 6.316406 0.03125 5.757812 0.09375 5.15625 0.09375 C 4.550781 0.09375 3.972656 0.03125 3.421875 -0.09375 C 2.878906 -0.21875 2.363281 -0.398438 1.875 -0.640625 C 1.394531 -0.878906 0.941406 -1.191406 0.515625 -1.578125 L 1.09375 -2.5 C 1.289062 -2.28125 1.535156 -2.078125 1.828125 -1.890625 C 2.117188 -1.703125 2.4375 -1.53125 2.78125 -1.375 C 3.132812 -1.226562 3.515625 -1.113281 3.921875 -1.03125 C 4.328125 -0.945312 4.75 -0.90625 5.1875 -0.90625 C 6.101562 -0.90625 6.816406 -1.070312 7.328125 -1.40625 C 7.847656 -1.75 8.109375 -2.25 8.109375 -2.90625 C 8.109375 -3.382812 7.976562 -3.765625 7.71875 -4.046875 C 7.457031 -4.335938 7.066406 -4.570312 6.546875 -4.75 C 6.023438 -4.9375 5.382812 -5.117188 4.625 -5.296875 C 3.820312 -5.484375 3.144531 -5.6875 2.59375 -5.90625 C 2.039062 -6.132812 1.625 -6.4375 1.34375 -6.8125 C 1.070312 -7.1875 0.9375 -7.679688 0.9375 -8.296875 C 0.9375 -9.015625 1.113281 -9.617188 1.46875 -10.109375 C 1.820312 -10.609375 2.304688 -10.984375 2.921875 -11.234375 C 3.535156 -11.492188 4.242188 -11.625 5.046875 -11.625 C 5.554688 -11.625 6.03125 -11.570312 6.46875 -11.46875 C 6.914062 -11.363281 7.320312 -11.210938 7.6875 -11.015625 C 8.0625 -10.816406 8.414062 -10.570312 8.75 -10.28125 Z M 8.1875 -9.375 "/></g></g></g><g fill="#ffffff" fill-opacity="1"><g transform="translate(54.420944, 25.659378)"><g><path d="M 11.671875 0 L 11.671875 -9.390625 L 7.484375 -2.09375 L 6.78125 -2.09375 L 2.578125 -9.390625 L 2.578125 0 L 1.453125 0 L 1.453125 -11.53125 L 2.609375 -11.53125 L 7.125 -3.640625 L 11.65625 -11.53125 L 12.8125 -11.53125 L 12.8125 0 Z M 11.671875 0 "/></g></g></g><g fill="#ffffff" fill-opacity="1"><g transform="translate(68.673348, 25.659378)"><g><path d="M 5.015625 -11.53125 L 5.984375 -11.53125 L 10.78125 0 L 9.578125 0 L 8.078125 -3.609375 L 2.890625 -3.609375 L 1.40625 0 L 0.1875 0 Z M 7.8125 -4.5 L 5.5 -10.203125 L 3.140625 -4.5 Z M 7.8125 -4.5 "/></g></g></g><g fill="#ffffff" fill-opacity="1"><g transform="translate(79.65924, 25.659378)"><g><path d="M 1.453125 0 L 1.453125 -11.53125 L 6.328125 -11.53125 C 6.816406 -11.53125 7.265625 -11.425781 7.671875 -11.21875 C 8.085938 -11.019531 8.453125 -10.742188 8.765625 -10.390625 C 9.078125 -10.035156 9.316406 -9.644531 9.484375 -9.21875 C 9.648438 -8.789062 9.734375 -8.351562 9.734375 -7.90625 C 9.734375 -7.351562 9.625 -6.832031 9.40625 -6.34375 C 9.195312 -5.863281 8.898438 -5.453125 8.515625 -5.109375 C 8.140625 -4.773438 7.691406 -4.554688 7.171875 -4.453125 L 10 0 L 8.703125 0 L 6 -4.25 L 2.578125 -4.25 L 2.578125 0 Z M 2.578125 -5.265625 L 6.359375 -5.265625 C 6.804688 -5.265625 7.195312 -5.390625 7.53125 -5.640625 C 7.875 -5.890625 8.132812 -6.21875 8.3125 -6.625 C 8.5 -7.03125 8.59375 -7.457031 8.59375 -7.90625 C 8.59375 -8.375 8.488281 -8.804688 8.28125 -9.203125 C 8.070312 -9.597656 7.789062 -9.914062 7.4375 -10.15625 C 7.082031 -10.40625 6.6875 -10.53125 6.25 -10.53125 L 2.578125 -10.53125 Z M 2.578125 -5.265625 "/></g></g></g><g fill="#ffffff" fill-opacity="1"><g transform="translate(90.271356, 25.659378)"><g><path d="M 9.640625 -10.53125 L 5.53125 -10.53125 L 5.53125 0 L 4.390625 0 L 4.390625 -10.53125 L 0.28125 -10.53125 L 0.28125 -11.53125 L 9.640625 -11.53125 Z M 9.640625 -10.53125 "/></g></g></g><g fill="#ffffff" fill-opacity="1"><g transform="translate(100.184664, 25.659378)"><g/></g></g><g fill="#ffffff" fill-opacity="1"><g transform="translate(104.328743, 25.659378)"><g><path d="M 0.6875 -5.84375 C 0.6875 -6.550781 0.804688 -7.242188 1.046875 -7.921875 C 1.285156 -8.597656 1.640625 -9.210938 2.109375 -9.765625 C 2.578125 -10.328125 3.148438 -10.773438 3.828125 -11.109375 C 4.515625 -11.441406 5.289062 -11.609375 6.15625 -11.609375 C 7.1875 -11.609375 8.066406 -11.367188 8.796875 -10.890625 C 9.523438 -10.421875 10.066406 -9.816406 10.421875 -9.078125 L 9.515625 -8.53125 C 9.273438 -9.039062 8.960938 -9.441406 8.578125 -9.734375 C 8.203125 -10.035156 7.800781 -10.25 7.375 -10.375 C 6.945312 -10.507812 6.519531 -10.578125 6.09375 -10.578125 C 5.394531 -10.578125 4.78125 -10.4375 4.25 -10.15625 C 3.726562 -9.882812 3.285156 -9.519531 2.921875 -9.0625 C 2.554688 -8.601562 2.28125 -8.085938 2.09375 -7.515625 C 1.90625 -6.941406 1.8125 -6.363281 1.8125 -5.78125 C 1.8125 -5.144531 1.921875 -4.535156 2.140625 -3.953125 C 2.359375 -3.367188 2.660156 -2.847656 3.046875 -2.390625 C 3.441406 -1.941406 3.898438 -1.582031 4.421875 -1.3125 C 4.953125 -1.050781 5.523438 -0.921875 6.140625 -0.921875 C 6.578125 -0.921875 7.019531 -0.992188 7.46875 -1.140625 C 7.925781 -1.296875 8.351562 -1.53125 8.75 -1.84375 C 9.144531 -2.164062 9.460938 -2.578125 9.703125 -3.078125 L 10.640625 -2.578125 C 10.398438 -2.003906 10.03125 -1.515625 9.53125 -1.109375 C 9.039062 -0.710938 8.488281 -0.410156 7.875 -0.203125 C 7.257812 -0.00390625 6.660156 0.09375 6.078125 0.09375 C 5.285156 0.09375 4.554688 -0.0703125 3.890625 -0.40625 C 3.234375 -0.75 2.664062 -1.203125 2.1875 -1.765625 C 1.707031 -2.335938 1.335938 -2.976562 1.078125 -3.6875 C 0.816406 -4.40625 0.6875 -5.125 0.6875 -5.84375 Z M 0.6875 -5.84375 "/></g></g></g><g fill="#ffffff" fill-opacity="1"><g transform="translate(115.477152, 25.659378)"><g><path d="M 1.453125 0 L 1.453125 -11.53125 L 2.578125 -11.53125 L 2.578125 0 Z M 1.453125 0 "/></g></g></g><g fill="#ffffff" fill-opacity="1"><g transform="translate(119.507473, 25.659378)"><g><path d="M 9.640625 -10.53125 L 5.53125 -10.53125 L 5.53125 0 L 4.390625 0 L 4.390625 -10.53125 L 0.28125 -10.53125 L 0.28125 -11.53125 L 9.640625 -11.53125 Z M 9.640625 -10.53125 "/></g></g></g><g fill="#ffffff" fill-opacity="1"><g transform="translate(129.420781, 25.659378)"><g><path d="M 1.453125 0 L 1.453125 -11.53125 L 2.578125 -11.53125 L 2.578125 0 Z M 1.453125 0 "/></g></g></g><g fill="#ffffff" fill-opacity="1"><g transform="translate(133.451101, 25.659378)"><g><path d="M 9.203125 -1 L 9.203125 0 L 1.453125 0 L 1.453125 -11.53125 L 9.046875 -11.53125 L 9.046875 -10.53125 L 2.578125 -10.53125 L 2.578125 -6.375 L 8.21875 -6.375 L 8.21875 -5.40625 L 2.578125 -5.40625 L 2.578125 -1 Z M 9.203125 -1 "/></g></g></g><g fill="#ffffff" fill-opacity="1"><g transform="translate(143.348151, 25.659378)"><g><path d="M 8.1875 -9.375 C 8.03125 -9.5625 7.84375 -9.726562 7.625 -9.875 C 7.40625 -10.019531 7.160156 -10.144531 6.890625 -10.25 C 6.617188 -10.363281 6.328125 -10.453125 6.015625 -10.515625 C 5.710938 -10.578125 5.382812 -10.609375 5.03125 -10.609375 C 4.03125 -10.609375 3.289062 -10.414062 2.8125 -10.03125 C 2.34375 -9.644531 2.109375 -9.125 2.109375 -8.46875 C 2.109375 -8.007812 2.21875 -7.648438 2.4375 -7.390625 C 2.664062 -7.128906 3.015625 -6.914062 3.484375 -6.75 C 3.960938 -6.59375 4.570312 -6.425781 5.3125 -6.25 C 6.132812 -6.082031 6.84375 -5.878906 7.4375 -5.640625 C 8.039062 -5.398438 8.503906 -5.078125 8.828125 -4.671875 C 9.148438 -4.265625 9.3125 -3.710938 9.3125 -3.015625 C 9.3125 -2.484375 9.207031 -2.023438 9 -1.640625 C 8.789062 -1.253906 8.503906 -0.929688 8.140625 -0.671875 C 7.773438 -0.410156 7.335938 -0.21875 6.828125 -0.09375 C 6.316406 0.03125 5.757812 0.09375 5.15625 0.09375 C 4.550781 0.09375 3.972656 0.03125 3.421875 -0.09375 C 2.878906 -0.21875 2.363281 -0.398438 1.875 -0.640625 C 1.394531 -0.878906 0.941406 -1.191406 0.515625 -1.578125 L 1.09375 -2.5 C 1.289062 -2.28125 1.535156 -2.078125 1.828125 -1.890625 C 2.117188 -1.703125 2.4375 -1.53125 2.78125 -1.375 C 3.132812 -1.226562 3.515625 -1.113281 3.921875 -1.03125 C 4.328125 -0.945312 4.75 -0.90625 5.1875 -0.90625 C 6.101562 -0.90625 6.816406 -1.070312 7.328125 -1.40625 C 7.847656 -1.75 8.109375 -2.25 8.109375 -2.90625 C 8.109375 -3.382812 7.976562 -3.765625 7.71875 -4.046875 C 7.457031 -4.335938 7.066406 -4.570312 6.546875 -4.75 C 6.023438 -4.9375 5.382812 -5.117188 4.625 -5.296875 C 3.820312 -5.484375 3.144531 -5.6875 2.59375 -5.90625 C 2.039062 -6.132812 1.625 -6.4375 1.34375 -6.8125 C 1.070312 -7.1875 0.9375 -7.679688 0.9375 -8.296875 C 0.9375 -9.015625 1.113281 -9.617188 1.46875 -10.109375 C 1.820312 -10.609375 2.304688 -10.984375 2.921875 -11.234375 C 3.535156 -11.492188 4.242188 -11.625 5.046875 -11.625 C 5.554688 -11.625 6.03125 -11.570312 6.46875 -11.46875 C 6.914062 -11.363281 7.320312 -11.210938 7.6875 -11.015625 C 8.0625 -10.816406 8.414062 -10.570312 8.75 -10.28125 Z M 8.1875 -9.375 "/></g></g></g></svg>